PathFileType	4	(X/Y/Z)	C:\Users\T490\OneDrive\Desktop\110_Internship_Tasks\Sprint GSG Position Analysis\results\sports2d_output\sprint_video_Sports2D\sprint_video_Sports2D_px_person00.trc
DataRate	CameraRate	NumFrames	NumMarkers	Units	OrigDataRate	OrigDataStartFrame	OrigNumFrames
25.0	25.0	7	22	m	25.0	489	559
Frame#	Time	Hip			RHip			RKnee			RAnkle			RBigToe			RSmallToe			RHeel			LHip			LKnee			LAnkle			LBigToe			LSmallToe			LHeel			Neck			Head			Nose			RShoulder			RElbow			RWrist			LShoulder			LElbow			LWrist			
		X1	Y1	Z1	X2	Y2	Z2	X3	Y3	Z3	X4	Y4	Z4	X5	Y5	Z5	X6	Y6	Z6	X7	Y7	Z7	X8	Y8	Z8	X9	Y9	Z9	X10	Y10	Z10	X11	Y11	Z11	X12	Y12	Z12	X13	Y13	Z13	X14	Y14	Z14	X15	Y15	Z15	X16	Y16	Z16	X17	Y17	Z17	X18	Y18	Z18	X19	Y19	Z19	X20	Y20	Z20	X21	Y21	Z21	X22	Y22	Z22
489	19.59505376344086	1051.1348145291026	481.9316132651875	0.0	1035.7576360755052	490.6688529963606	0.0	1008.8474186246403	579.6893005802265	0.0	1094.2326331158665	633.6025900845079	0.0	1087.5498615055617	680.3627410899765	0.0	1085.9414372974197	672.2394487534468	0.0	1109.598282165724	639.0451959836855	0.0	1062.1402291284007	477.96612252152124	0.0	1066.1047380190403	592.4369421696613	0.0	1171.6529236412534	639.0892649751503	0.0	1164.3595065346235	691.8703274435786	0.0	1173.8160887629695	686.5408882378238	0.0	1187.9379854902743	639.0198834658177	0.0	916.267871127308	522.5939347574295	0.0	851.6807426814072	558.5246777357626	0.0	896.2615252474508	561.7589500107276	0.0	922.2753651981358	507.8600590535299	0.0	945.4396619543695	592.6775456424502	0.0	947.7195007086818	663.3641876720327	0.0	929.5991470125514	520.3547742743201	0.0	944.9264449392292	593.9611931032174	0.0	950.6969898776349	660.2336006369943	0.0
490	19.635125448028674	1052.563224362891	482.38425229793484	0.0	1037.0574037456265	490.2845945617097	0.0	1009.6782981796109	579.5548082526353	0.0	1094.9008657960023	633.5529608036446	0.0	1088.5128577315563	680.7662402620646	0.0	1087.110767231716	672.458668116668	0.0	1110.0836987022706	639.0325640622505	0.0	1063.062888800517	478.2285425567641	0.0	1066.2310081598523	592.5184629660628	0.0	1173.171968927714	638.7362394925522	0.0	1163.5513828182156	692.0175204760204	0.0	1173.7069038722736	687.0802753749679	0.0	1189.6283014672488	638.7711035531843	0.0	918.5887138081263	522.6160953197127	0.0	850.624734994907	558.2493694118775	0.0	895.2295083400874	561.7159609512802	0.0	923.1553004979569	507.8996931865996	0.0	945.1685784916648	592.7024540611354	0.0	947.7692586230754	662.0545980778539	0.0	930.9907376937751	520.4724505047568	0.0	946.0441885512055	593.5653477030464	0.0	951.3938347191872	660.0599522531766	0.0
491	19.67519713261649	1054.1821191159752	482.1646037840774	0.0	1038.4921848768217	489.94126161060035	0.0	1009.3171343620918	579.7021098744623	0.0	1094.936228515707	633.9659636556612	0.0	1088.428409114169	681.0795568978297	0.0	1086.8346855185143	672.745595613997	0.0	1110.3239595824912	639.5206337186681	0.0	1064.631598038316	478.5419434125978	0.0	1066.4358461059696	593.7601168485185	0.0	1173.2618112645443	638.4866885702521	0.0	1163.0821696515889	692.0310201957498	0.0	1173.6220459927827	686.7977135363466	0.0	1189.9376050648639	637.7344365208291	0.0	919.4653024980819	523.020946577877	0.0	850.7219328277881	557.7486803713191	0.0	896.995610574169	562.5048028214777	0.0	924.8547019277562	508.5301442152257	0.0	946.363198449626	592.9206832332932	0.0	948.8271938381595	661.9772074694176	0.0	932.3544695624905	520.2211623118486	0.0	946.2949697076554	593.1998976441475	0.0	951.6539432187726	661.2648785853612	0.0
492	19.7152688172043	1055.6318501912037	482.2888795194298	0.0	1040.379282639576	489.87568207422635	0.0	1009.0355672492055	580.0606026996163	0.0	1094.258246632119	634.4702969197097	0.0	1087.6229345034503	680.9283443759559	0.0	1085.9215874716697	672.5709612260785	0.0	1109.7095204533105	640.1334930304948	0.0	1066.3907007366097	479.09699483566345	0.0	1066.8939509109334	594.7514932280741	0.0	1172.5157775067598	638.7606655621041	0.0	1163.124028671049	692.2235124053619	0.0	1173.7287507915744	686.6699026207802	0.0	1188.7018473310577	637.2460695189773	0.0	919.6987523501026	523.0952867660361	0.0	852.5302710897247	556.8610692703445	0.0	900.2849289434818	562.3013637916393	0.0	926.7947164889363	508.1628101797022	0.0	948.4030938749224	593.0697441883783	0.0	949.6318063954953	663.5414683001952	0.0	933.34686696577	520.2462573687226	0.0	946.4489420560471	593.5646102249013	0.0	951.2472970423742	662.83802821156	0.0
493	19.755340501792116	1056.1158696789716	483.4843804668882	0.0	1041.132277119859	490.41948811004045	0.0	1009.3108208177873	580.7050041664248	0.0	1094.1486918335436	634.4529849007941	0.0	1087.627015709813	680.4882099266846	0.0	1086.0009376081978	671.8107684206968	0.0	1109.2949106566814	640.3992748308406	0.0	1067.2504468793118	479.8643225352904	0.0	1068.7027811162407	594.9278019509088	0.0	1174.1762926968506	639.4670143046382	0.0	1163.9520811074021	693.1359658622099	0.0	1174.7269604871447	687.9788402996697	0.0	1188.8801243666617	638.6798982781766	0.0	921.0786939628794	521.6464577989772	0.0	854.7451444573229	553.7144796427775	0.0	901.5525810753945	559.3254950480621	0.0	928.1084393592432	506.03713889002654	0.0	948.8960677735765	592.53928529972	0.0	948.9988633837385	664.5699234686638	0.0	934.5342349888418	520.7224568394668	0.0	948.0655164872587	594.6403851516711	0.0	951.521725580461	663.1890899247896	0.0
494	19.795412186379927	1055.038275360284	485.23417722985175	0.0	1039.3855358984522	491.4582856135851	0.0	1008.4771222127089	582.9047525627061	0.0	1094.954751463512	634.381599202845	0.0	1089.6174887195273	680.1262141275595	0.0	1087.0040822340661	670.8575092431079	0.0	1110.2865641634785	640.594127135398	0.0	1066.3244339827625	480.9917032368679	0.0	1071.9224690545288	595.4365545746759	0.0	1178.999858013089	640.3112961678863	0.0	1166.014226984813	694.5205976122212	0.0	1177.6448986359776	689.798198093778	0.0	1193.0470660562753	640.7778685555669	0.0	921.895334335112	516.8118324846325	0.0	854.5817533599079	544.6679293377485	0.0	899.4216480157404	552.1163655529218	0.0	928.3711402164085	501.22038877776515	0.0	949.4878103078987	588.7842868347665	0.0	950.4557062535566	659.8910799460282	0.0	934.3851632810986	518.523417793328	0.0	950.303227689478	594.1914157589443	0.0	952.9861290049535	660.8475135796884	0.0
495	19.835483870967742	1051.2449297103772	486.15559331698125	0.0	1036.359937147055	491.24132426519793	0.0	1006.3533144161204	587.1215873154366	0.0	1096.1691796267032	635.3707746993009	0.0	1092.29732180775	680.4429227084177	0.0	1087.360720646806	671.1628697455258	0.0	1111.7375941181306	641.8115020435881	0.0	1061.4514706231573	482.42804267283395	0.0	1070.6886551719758	597.1648166369654	0.0	1179.5582760598695	640.8347513175921	0.0	1167.9545504146695	695.0377373770306	0.0	1180.404229884253	689.9292190113229	0.0	1195.4046132229814	640.6004675313873	0.0	918.5686238876673	506.80534904494147	0.0	849.5041950455517	527.6093604373441	0.0	892.519287968509	538.9560321623865	0.0	926.5013248506001	492.35681022084907	0.0	952.4653619412132	579.0979668177773	0.0	957.3011536725944	645.6327566230422	0.0	929.9978015921201	509.7687904872436	0.0	949.8093112496307	587.2382708631347	0.0	955.6852734173813	653.399996564922	0.0
